# xmcd
# 
# Track frame offsets:
#     150
#     18101
#     36426
#     59514
#     72424
#     91728
#     115744
#     133054
#     148983
#     158862
#     172816
#     186255
#     208175
#     223849
#     248625
#     267446
# 
# Disc length: 3845
# 
# Revision: 0
# Processed by: cddbd v1.5.2PL0 Copyright (c) Steve Scherf et al.
# Submitted via: fre:ac v1.0.31
# 
DISCID=f20f0310
DTITLE=Various Artist - In Rainbow
DYEAR=0
DGENRE=
TTITLE0=Radiohead - 15 Step
TTITLE1=Radiohead - Bodysnatchers
TTITLE2=Radiohead - Down Is The New Up
TTITLE3=Radiohead - Go Slowly
TTITLE4=Radiohead - Nude
TTITLE5=Radiohead - Weird Fishes/Arpeggi
TTITLE6=Radiohead - All I Need
TTITLE7=05 - Radiohead - last flowers
TTITLE8=Radiohead - Faust Arp
TTITLE9=Radiohead - Up On The Ladder
TTITLE10=Radiohead - Bangers And Mash
TTITLE11=Radiohead - Reckoner
TTITLE12=Radiohead - 4 Minute Warning
TTITLE13=Radiohead - House Of Cards
TTITLE14=Radiohead - Jigsaw Falling Into Place
TTITLE15=Radiohead - Videotape
EXTD=
EXTT0=
EXTT1=
EXTT2=
EXTT3=
EXTT4=
EXTT5=
EXTT6=
EXTT7=
EXTT8=
EXTT9=
EXTT10=
EXTT11=
EXTT12=
EXTT13=
EXTT14=
EXTT15=
PLAYORDER=
